# Blender v2.92.0 OBJ File: ''
# www.blender.org
mtllib entrance.mtl
o cube
v 0.312500 0.000000 -0.187500
v 0.187500 0.000000 -0.187500
v 0.187500 0.312500 -0.187500
v 0.312500 0.312500 -0.187500
v 0.312500 -0.000000 0.187500
v 0.312500 0.312500 0.187500
v 0.187500 -0.000000 0.187500
v 0.187500 0.312500 0.187500
vt 0.437500 0.562500
vt 0.406250 0.640625
vt 0.406250 0.562500
vt 0.343750 0.609375
vt 0.250000 0.687500
vt 0.250000 0.609375
vt 0.468750 0.921875
vt 0.437500 1.000000
vt 0.437500 0.921875
vt 0.343750 1.000000
vt 0.343750 0.921875
vt 0.312500 0.609375
vt 0.343750 0.515625
vt 0.343750 0.609375
vt 0.343750 0.515625
vt 0.375000 0.609375
vt 0.375000 0.515625
vt 0.437500 0.640625
vt 0.343750 0.687500
vt 0.468750 1.000000
vt 0.312500 0.515625
vt 0.343750 0.609375
vn 0.0000 0.0000 -1.0000
vn 1.0000 -0.0000 0.0000
vn 0.0000 -0.0000 1.0000
vn -1.0000 0.0000 0.0000
vn 0.0000 1.0000 0.0000
vn 0.0000 -1.0000 -0.0000
usemtl m_3a1134f8-c251-73fd-509e-8771204b4b05
s 1
f 2/1/1 4/2/1 1/3/1
f 1/4/2 6/5/2 5/6/2
f 5/7/3 8/8/3 7/9/3
f 7/9/4 3/10/4 2/11/4
f 6/12/5 3/13/5 8/14/5
f 1/15/6 7/16/6 2/17/6
f 2/1/1 3/18/1 4/2/1
f 1/4/2 4/19/2 6/5/2
f 5/7/3 6/20/3 8/8/3
f 7/9/4 8/8/4 3/10/4
f 6/12/5 4/21/5 3/13/5
f 1/15/6 5/22/6 7/16/6
o cube.000
v 0.525888 0.000000 -0.437500
v 0.437500 0.000000 -0.525888
v 0.437500 0.625000 -0.525888
v 0.525888 0.625000 -0.437500
v 0.260723 0.000000 -0.172335
v 0.260723 0.625000 -0.172335
v 0.172335 0.000000 -0.260723
v 0.172335 0.625000 -0.260723
vt 0.375000 0.765625
vt 0.343750 0.921875
vt 0.343750 0.765625
vt 0.343750 0.843750
vt 0.250000 1.000000
vt 0.250000 0.843750
vt 0.375000 0.609375
vt 0.343750 0.765625
vt 0.343750 0.609375
vt 0.343750 0.687500
vt 0.250000 0.843750
vt 0.250000 0.687500
vt 0.375000 0.609375
vt 0.406250 0.515625
vt 0.406250 0.609375
vt 0.437500 0.828125
vt 0.406250 0.921875
vt 0.437500 0.921875
vt 0.375000 0.921875
vt 0.343750 1.000000
vt 0.375000 0.765625
vt 0.343750 0.843750
vt 0.375000 0.515625
vt 0.406250 0.828125
vn 0.7071 0.0000 -0.7071
vn 0.7071 -0.0000 0.7071
vn -0.7071 -0.0000 0.7071
vn -0.7071 0.0000 -0.7071
vn 0.0000 1.0000 0.0000
vn -0.0000 -1.0000 -0.0000
usemtl m_3a1134f8-c251-73fd-509e-8771204b4b05
s 1
f 10/23/7 12/24/7 9/25/7
f 9/26/8 14/27/8 13/28/8
f 13/29/9 16/30/9 15/31/9
f 15/32/10 11/33/10 10/34/10
f 14/35/11 11/36/11 16/37/11
f 10/38/12 13/39/12 15/40/12
f 10/23/7 11/41/7 12/24/7
f 9/26/8 12/42/8 14/27/8
f 13/29/9 14/43/9 16/30/9
f 15/32/10 16/44/10 11/33/10
f 14/35/11 12/45/11 11/36/11
f 10/38/12 9/46/12 13/39/12
o cube.001
v 0.261049 -0.000000 0.172660
v 0.172660 -0.000000 0.261049
v 0.172660 0.625000 0.261049
v 0.261049 0.625000 0.172660
v 0.526214 -0.000000 0.437825
v 0.526214 0.625000 0.437825
v 0.437825 -0.000000 0.526214
v 0.437825 0.625000 0.526214
vt 0.406250 0.765625
vt 0.375000 0.921875
vt 0.375000 0.765625
vt 0.093750 0.531250
vt 0.000000 0.687500
vt 0.000000 0.531250
vt 0.406250 0.609375
vt 0.375000 0.765625
vt 0.375000 0.609375
vt 0.187500 0.531250
vt 0.093750 0.687500
vt 0.093750 0.531250
vt 0.406250 0.828125
vt 0.437500 0.734375
vt 0.437500 0.828125
vt 0.406250 0.640625
vt 0.437500 0.734375
vt 0.437500 0.640625
vt 0.406250 0.921875
vt 0.093750 0.687500
vt 0.406250 0.765625
vt 0.187500 0.687500
vt 0.406250 0.734375
vt 0.406250 0.734375
vn -0.7071 0.0000 -0.7071
vn 0.7071 0.0000 -0.7071
vn 0.7071 -0.0000 0.7071
vn -0.7071 -0.0000 0.7071
vn -0.0000 1.0000 0.0000
vn 0.0000 -1.0000 -0.0000
usemtl m_3a1134f8-c251-73fd-509e-8771204b4b05
s 1
f 18/47/13 20/48/13 17/49/13
f 17/50/14 22/51/14 21/52/14
f 21/53/15 24/54/15 23/55/15
f 23/56/16 19/57/16 18/58/16
f 22/59/17 19/60/17 24/61/17
f 17/62/18 23/63/18 18/64/18
f 18/47/13 19/65/13 20/48/13
f 17/50/14 20/66/14 22/51/14
f 21/53/15 22/67/15 24/54/15
f 23/56/16 24/68/16 19/57/16
f 22/59/17 20/69/17 19/60/17
f 17/62/18 21/70/18 23/63/18
o cube.002
v -0.375000 0.000000 -0.500000
v -0.500000 0.000000 -0.500000
v -0.500000 0.625000 -0.500000
v -0.375000 0.625000 -0.500000
v -0.375000 -0.000000 0.500000
v -0.375000 0.625000 0.500000
v -0.500000 -0.000000 0.500000
v -0.500000 0.625000 0.500000
vt 0.281250 0.453125
vt 0.250000 0.609375
vt 0.250000 0.453125
vt 0.250000 0.843750
vt 0.000000 1.000000
vt 0.000000 0.843750
vt 0.312500 0.453125
vt 0.281250 0.609375
vt 0.281250 0.453125
vt 0.250000 0.687500
vt 0.000000 0.843750
vt 0.000000 0.687500
vt 0.187500 0.687500
vt 0.218750 0.437500
vt 0.218750 0.687500
vt 0.218750 0.437500
vt 0.250000 0.437500
vt 0.281250 0.609375
vt 0.250000 1.000000
vt 0.312500 0.609375
vt 0.250000 0.843750
vt 0.187500 0.437500
vt 0.218750 0.687500
vn 0.0000 0.0000 -1.0000
vn 1.0000 -0.0000 0.0000
vn 0.0000 -0.0000 1.0000
vn -1.0000 0.0000 0.0000
vn 0.0000 1.0000 0.0000
vn 0.0000 -1.0000 -0.0000
usemtl m_3a1134f8-c251-73fd-509e-8771204b4b05
s 1
f 26/71/19 28/72/19 25/73/19
f 25/74/20 30/75/20 29/76/20
f 29/77/21 32/78/21 31/79/21
f 31/80/22 27/81/22 26/82/22
f 30/83/23 27/84/23 32/85/23
f 25/86/24 31/80/24 26/87/24
f 26/71/19 27/88/19 28/72/19
f 25/74/20 28/89/20 30/75/20
f 29/77/21 30/90/21 32/78/21
f 31/80/22 32/91/22 27/81/22
f 30/83/23 28/92/23 27/84/23
f 25/86/24 29/93/24 31/80/24
o cube.003
v 0.187500 -0.000000 0.187500
v 0.125000 -0.000000 0.187500
v 0.125000 0.312500 0.187500
v 0.187500 0.312500 0.187500
v 0.187500 -0.000000 0.250000
v 0.187500 0.312500 0.250000
v 0.125000 -0.000000 0.250000
v 0.125000 0.312500 0.250000
vt 0.453125 0.843750
vt 0.437500 0.921875
vt 0.437500 0.843750
vt 0.453125 0.765625
vt 0.437500 0.843750
vt 0.437500 0.765625
vt 0.453125 0.687500
vt 0.437500 0.765625
vt 0.437500 0.687500
vt 0.453125 0.609375
vt 0.437500 0.687500
vt 0.437500 0.609375
vt 0.453125 0.734375
vt 0.468750 0.718750
vt 0.468750 0.734375
vt 0.453125 0.703125
vt 0.468750 0.718750
vt 0.468750 0.703125
vt 0.453125 0.921875
vt 0.453125 0.843750
vt 0.453125 0.765625
vt 0.453125 0.687500
vt 0.453125 0.718750
vt 0.453125 0.718750
vn 0.0000 0.0000 -1.0000
vn 1.0000 0.0000 0.0000
vn 0.0000 -0.0000 1.0000
vn -1.0000 0.0000 0.0000
vn 0.0000 1.0000 0.0000
vn 0.0000 -1.0000 -0.0000
usemtl m_3a1134f8-c251-73fd-509e-8771204b4b05
s 1
f 34/94/25 36/95/25 33/96/25
f 33/97/26 38/98/26 37/99/26
f 37/100/27 40/101/27 39/102/27
f 39/103/28 35/104/28 34/105/28
f 38/106/29 35/107/29 40/108/29
f 33/109/30 39/110/30 34/111/30
f 34/94/25 35/112/25 36/95/25
f 33/97/26 36/113/26 38/98/26
f 37/100/27 38/114/27 40/101/27
f 39/103/28 40/115/28 35/104/28
f 38/106/29 36/116/29 35/107/29
f 33/109/30 37/117/30 39/110/30
o cube.004
v 0.125000 0.250000 0.187500
v -0.187500 0.250000 0.187500
v -0.187500 0.312500 0.187500
v 0.125000 0.312500 0.187500
v 0.125000 0.250000 0.250000
v 0.125000 0.312500 0.250000
v -0.187500 0.250000 0.250000
v -0.187500 0.312500 0.250000
vt 0.515625 0.593750
vt 0.437500 0.609375
vt 0.437500 0.593750
vt 0.468750 0.687500
vt 0.453125 0.703125
vt 0.453125 0.687500
vt 0.484375 0.546875
vt 0.406250 0.562500
vt 0.406250 0.546875
vt 0.468750 0.671875
vt 0.453125 0.687500
vt 0.453125 0.671875
vt 0.437500 0.593750
vt 0.515625 0.578125
vt 0.515625 0.593750
vt 0.437500 0.562500
vt 0.515625 0.578125
vt 0.515625 0.562500
vt 0.515625 0.609375
vt 0.468750 0.703125
vt 0.484375 0.562500
vt 0.468750 0.687500
vt 0.437500 0.578125
vt 0.437500 0.578125
vn 0.0000 0.0000 -1.0000
vn 1.0000 0.0000 0.0000
vn 0.0000 -0.0000 1.0000
vn -1.0000 0.0000 0.0000
vn 0.0000 1.0000 0.0000
vn 0.0000 -1.0000 -0.0000
usemtl m_3a1134f8-c251-73fd-509e-8771204b4b05
s 1
f 42/118/31 44/119/31 41/120/31
f 41/121/32 46/122/32 45/123/32
f 45/124/33 48/125/33 47/126/33
f 47/127/34 43/128/34 42/129/34
f 46/130/35 43/131/35 48/132/35
f 41/133/36 47/134/36 42/135/36
f 42/118/31 43/136/31 44/119/31
f 41/121/32 44/137/32 46/122/32
f 45/124/33 46/138/33 48/125/33
f 47/127/34 48/139/34 43/128/34
f 46/130/35 44/140/35 43/131/35
f 41/133/36 45/141/36 47/134/36
o cube.005
v 0.125000 0.062500 0.187500
v -0.187500 0.062500 0.187500
v -0.187500 0.125000 0.187500
v 0.125000 0.125000 0.187500
v 0.125000 0.062500 0.250000
v 0.125000 0.125000 0.250000
v -0.187500 0.062500 0.250000
v -0.187500 0.125000 0.250000
vt 0.531250 0.906250
vt 0.453125 0.921875
vt 0.453125 0.906250
vt 0.468750 0.656250
vt 0.453125 0.671875
vt 0.453125 0.656250
vt 0.531250 0.890625
vt 0.453125 0.906250
vt 0.453125 0.890625
vt 0.468750 0.640625
vt 0.453125 0.656250
vt 0.453125 0.640625
vt 0.453125 0.890625
vt 0.531250 0.875000
vt 0.531250 0.890625
vt 0.453125 0.859375
vt 0.531250 0.875000
vt 0.531250 0.859375
vt 0.531250 0.921875
vt 0.468750 0.671875
vt 0.531250 0.906250
vt 0.468750 0.656250
vt 0.453125 0.875000
vt 0.453125 0.875000
vn 0.0000 0.0000 -1.0000
vn 1.0000 0.0000 0.0000
vn 0.0000 -0.0000 1.0000
vn -1.0000 0.0000 0.0000
vn 0.0000 1.0000 0.0000
vn 0.0000 -1.0000 -0.0000
usemtl m_3a1134f8-c251-73fd-509e-8771204b4b05
s 1
f 50/142/37 52/143/37 49/144/37
f 49/145/38 54/146/38 53/147/38
f 53/148/39 56/149/39 55/150/39
f 55/151/40 51/152/40 50/153/40
f 54/154/41 51/155/41 56/156/41
f 49/157/42 55/158/42 50/159/42
f 50/142/37 51/160/37 52/143/37
f 49/145/38 52/161/38 54/146/38
f 53/148/39 54/162/39 56/149/39
f 55/151/40 56/163/40 51/152/40
f 54/154/41 52/164/41 51/155/41
f 49/157/42 53/165/42 55/158/42
o cube.006
v -0.162011 0.253793 0.187500
v -0.277496 0.205957 0.187500
v -0.301414 0.263700 0.187500
v -0.185929 0.311535 0.187500
v -0.162011 0.253793 0.250000
v -0.185929 0.311535 0.250000
v -0.277496 0.205957 0.250000
v -0.301414 0.263700 0.250000
vt 0.484375 0.843750
vt 0.453125 0.859375
vt 0.453125 0.843750
vt 0.468750 0.625000
vt 0.453125 0.640625
vt 0.453125 0.625000
vt 0.453125 0.828125
vt 0.484375 0.843750
vt 0.453125 0.843750
vt 0.468750 0.609375
vt 0.453125 0.625000
vt 0.453125 0.609375
vt 0.453125 0.828125
vt 0.484375 0.812500
vt 0.484375 0.828125
vt 0.453125 0.796875
vt 0.484375 0.812500
vt 0.484375 0.796875
vt 0.484375 0.859375
vt 0.468750 0.640625
vt 0.484375 0.828125
vt 0.468750 0.625000
vt 0.453125 0.812500
vt 0.453125 0.812500
vn 0.0000 0.0000 -1.0000
vn 0.9239 0.3827 0.0000
vn -0.0000 -0.0000 1.0000
vn -0.9239 -0.3827 0.0000
vn -0.3827 0.9239 0.0000
vn 0.3827 -0.9239 -0.0000
usemtl m_3a1134f8-c251-73fd-509e-8771204b4b05
s 1
f 58/166/43 60/167/43 57/168/43
f 57/169/44 62/170/44 61/171/44
f 63/172/45 62/173/45 64/174/45
f 63/175/46 59/176/46 58/177/46
f 62/178/47 59/179/47 64/180/47
f 57/181/48 63/182/48 58/183/48
f 58/166/43 59/184/43 60/167/43
f 57/169/44 60/185/44 62/170/44
f 63/172/45 61/186/45 62/173/45
f 63/175/46 64/187/46 59/176/46
f 62/178/47 60/188/47 59/179/47
f 57/181/48 61/189/48 63/182/48
o cube.007
v -0.187500 0.062500 0.187500
v -0.302985 0.110335 0.187500
v -0.279067 0.168078 0.187500
v -0.163582 0.120242 0.187500
v -0.187500 0.062500 0.250000
v -0.163582 0.120242 0.250000
v -0.302985 0.110335 0.250000
v -0.279067 0.168078 0.250000
vt 0.453125 0.781250
vt 0.484375 0.796875
vt 0.453125 0.796875
vt 0.421875 0.531250
vt 0.406250 0.546875
vt 0.406250 0.531250
vt 0.484375 0.765625
vt 0.453125 0.781250
vt 0.453125 0.765625
vt 0.437500 0.531250
vt 0.421875 0.546875
vt 0.421875 0.531250
vt 0.453125 0.765625
vt 0.484375 0.750000
vt 0.484375 0.765625
vt 0.453125 0.734375
vt 0.484375 0.750000
vt 0.484375 0.734375
vt 0.484375 0.781250
vt 0.421875 0.546875
vt 0.484375 0.781250
vt 0.437500 0.546875
vt 0.453125 0.750000
vt 0.453125 0.750000
vn -0.0000 0.0000 -1.0000
vn 0.9239 -0.3827 -0.0000
vn -0.0000 -0.0000 1.0000
vn -0.9239 0.3827 0.0000
vn 0.3827 0.9239 0.0000
vn -0.3827 -0.9239 -0.0000
usemtl m_3a1134f8-c251-73fd-509e-8771204b4b05
s 1
f 65/190/49 67/191/49 68/192/49
f 65/193/50 70/194/50 69/195/50
f 69/196/51 72/197/51 71/198/51
f 71/199/52 67/200/52 66/201/52
f 70/202/53 67/203/53 72/204/53
f 65/205/54 71/206/54 66/207/54
f 65/190/49 66/208/49 67/191/49
f 65/193/50 68/209/50 70/194/50
f 69/196/51 70/210/51 72/197/51
f 71/199/52 72/211/52 67/200/52
f 70/202/53 68/212/53 67/203/53
f 65/205/54 69/213/54 71/206/54
o cube.008
v -0.297985 0.147097 0.187500
v -0.342180 0.191291 0.187500
v -0.297985 0.235485 0.187500
v -0.253791 0.191291 0.187500
v -0.297985 0.147097 0.250000
v -0.253791 0.191291 0.250000
v -0.342180 0.191291 0.250000
v -0.297985 0.235485 0.250000
vt 0.453125 0.531250
vt 0.437500 0.546875
vt 0.437500 0.531250
vt 0.468750 0.531250
vt 0.453125 0.546875
vt 0.453125 0.531250
vt 0.000000 0.515625
vt 0.015625 0.531250
vt 0.000000 0.531250
vt 0.484375 0.984375
vt 0.468750 1.000000
vt 0.468750 0.984375
vt 0.031250 0.515625
vt 0.031250 0.531250
vt 0.468750 0.968750
vt 0.484375 0.968750
vt 0.453125 0.546875
vt 0.468750 0.546875
vt 0.015625 0.515625
vt 0.484375 1.000000
vt 0.015625 0.515625
vt 0.468750 0.984375
vn 0.0000 0.0000 -1.0000
vn 0.7071 -0.7071 0.0000
vn 0.0000 0.0000 1.0000
vn -0.7071 0.7071 0.0000
vn 0.7071 0.7071 0.0000
vn -0.7071 -0.7071 0.0000
usemtl m_3a1134f8-c251-73fd-509e-8771204b4b05
s 1
f 74/214/55 76/215/55 73/216/55
f 73/217/56 78/218/56 77/219/56
f 79/220/57 78/221/57 80/222/57
f 79/223/58 75/224/58 74/225/58
f 78/221/59 75/226/59 80/227/59
f 73/228/60 79/223/60 74/229/60
f 74/214/55 75/230/55 76/215/55
f 73/217/56 76/231/56 78/218/56
f 79/220/57 77/232/57 78/221/57
f 79/223/58 80/233/58 75/224/58
f 78/221/59 76/234/59 75/226/59
f 73/228/60 77/235/60 79/223/60
