# Made in Blockbench 4.11.2
mtllib lamp_post.mtl

o cylinder_selection
v 0.042752517915708596 0.9375 -0.363450466818494
v 8.145261892414912e-18 0.9375 -0.3790111107797445
v 0.05760031156917976 1.0332555553898721 -0.21874999999999994
v 0.022748139641637664 1.0625 -0.21874999999999997
v 0 0.8125 -0.3125
v 0.022748139641637643 0.8125 -0.25
v 0.022748139641637643 0.9375 -0.25
v 0.05760031156917976 0.8125 -0.27924444461012776
v 0.05760031156917976 0.9375 -0.27924444461012776
v 0.06550065755734623 0.8125 -0.324049533181506
v 0.06550065755734623 0.9375 -0.324049533181506
v 0.042752517915708596 0.8125 -0.363450466818494
v 0.042752517915708596 0.9375 -0.363450466818494
v 8.145261892414912e-18 0.8125 -0.3790111107797445
v 8.145261892414912e-18 0.9375 -0.3790111107797445
v -0.04275251791570858 0.8125 -0.363450466818494
v -0.04275251791570858 0.9375 -0.363450466818494
v -0.06550065755734623 0.8125 -0.324049533181506
v -0.06550065755734623 0.9375 -0.324049533181506
v -0.02274813964163769 0.8125 -0.25
v -0.02274813964163769 0.9375 -0.25
v -0.05760031156917976 0.8125 -0.27924444461012776
v -0.05760031156917976 0.9375 -0.27924444461012776
v 0.04275251791570858 0.949049533181506 -0.21874999999999994
v 0.04275251791570858 0.949049533181506 -0.09375
v 0.06550065755734624 0.988450466818494 -0.21874999999999994
v 0.06550065755734624 0.988450466818494 -0.09375
v 0.05760031156917976 1.0332555553898721 -0.21874999999999994
v 0.05760031156917976 1.0332555553898723 -0.09375
v 0.022748139641637664 1.0625 -0.21874999999999997
v 0.022748139641637664 1.0625 -0.09375
v -0.022748139641637636 1.0625 -0.21874999999999997
v -0.022748139641637632 1.0625 -0.09375
v -0.05760031156917976 1.0332555553898721 -0.21874999999999997
v -0.05760031156917976 1.0332555553898723 -0.09375
v -0.06550065755734623 0.988450466818494 -0.21874999999999994
v -0.06550065755734623 0.988450466818494 -0.09375
v -6.245004513516506e-17 0.9334888892202555 -0.21874999999999994
v -5.898059818321144e-17 0.9334888892202555 -0.09375
v -0.04275251791570859 0.949049533181506 -0.21874999999999994
v -0.04275251791570859 0.949049533181506 -0.09375
v 1.3877787807814457e-17 0.6875 0
v 0.02274813964163766 0.6875 0.0625
v 0.022748139641637674 0.9375 0.0625
v 0.057600311569179774 0.6875 0.03325555538987224
v 0.057600311569179774 0.9375 0.03325555538987224
v 0.06550065755734627 0.6875 -0.011549533181505978
v 0.06550065755734627 0.9375 -0.011549533181505978
v 0.04275251791570861 0.6875 -0.05095046681849402
v 0.042752517915708624 0.9375 -0.05095046681849402
v 1.3877787807814457e-17 0.6875 -0.0665111107797445
v 2.0816681711721685e-17 0.9375 -0.0665111107797445
v -0.04275251791570854 0.6875 -0.05095046681849402
v -0.04275251791570852 0.9375 -0.05095046681849402
v -0.06550065755734621 0.6875 -0.011549533181505978
v -0.06550065755734623 0.9375 -0.011549533181505978
v -0.05760031156917973 0.6875 0.03325555538987224
v -0.057600311569179725 0.9375 0.03325555538987224
v -0.022748139641637674 0.6875 0.06249999999999989
v -0.022748139641637667 0.9375 0.06249999999999989
v 0 -0.0625 0
v 0 0.6875 0
v 0.022748139641637643 -0.0625 0.0625
v 0.022748139641637643 0.6875 0.0625
v 0.05760031156917976 -0.0625 0.03325555538987224
v 0.05760031156917976 0.6875 0.03325555538987224
v 0.06550065755734623 -0.0625 -0.011549533181505978
v 0.06550065755734623 0.6875 -0.011549533181505978
v 0.042752517915708596 -0.0625 -0.05095046681849402
v 0.042752517915708596 0.6875 -0.05095046681849402
v 8.145261892414912e-18 -0.0625 -0.0665111107797445
v 8.145261892414912e-18 0.6875 -0.0665111107797445
v -0.04275251791570858 -0.0625 -0.05095046681849402
v -0.04275251791570858 0.6875 -0.05095046681849402
v -0.06550065755734623 -0.0625 -0.011549533181505978
v -0.06550065755734623 0.6875 -0.011549533181505978
v -0.05760031156917976 -0.0625 0.03325555538987224
v -0.05760031156917976 0.6875 0.03325555538987224
v -0.02274813964163769 -0.0625 0.0625
v -0.02274813964163769 0.6875 0.0625
v 0.125 0.125 0.125
v 0.125 0.125 -0.125
v 0.125 0 0.125
v 0.125 0 -0.125
v -0.125 0.125 0.125
v -0.125 0.125 -0.125
v -0.125 0 0.125
v -0.125 0 -0.125
v 0 0.75 -0.3125
v 0.022748139641637643 0.75 -0.375
v 0.05760031156917976 0.75 -0.34575555538987224
v 0.06550065755734623 0.75 -0.300950466818494
v 0.042752517915708596 0.75 -0.261549533181506
v 8.145261892414912e-18 0.75 -0.2459888892202555
v -0.04275251791570858 0.75 -0.261549533181506
v -0.06550065755734623 0.75 -0.300950466818494
v -0.05760031156917976 0.75 -0.34575555538987224
v -0.02274813964163769 0.75 -0.375
v 0.028800577978684593 0.8749981675702647 -0.32912802144881037
v 0.01137390308334882 0.8750018324297353 -0.3437495418925662
v -0.011373903083348845 0.8750018324297353 -0.3437495418925662
v -0.028799733590495168 0.8750018324297353 -0.32912753394106187
v -0.03274984867726277 0.8750018324297353 -0.3067253180640791
v -0.021375945593913953 0.8750018324297353 -0.28702514004335467
v 4.072571243727084e-18 0.8750018324297353 -0.2792449321178762
v 0.02137594559391396 0.8750018324297353 -0.28702514004335467
v 0.03274984867726277 0.8750018324297353 -0.3067253180640791
vt 0.03125 0.08524428571705334
vt 0.03125 0.1875
vt 0 0.18050112892892645
vt 0.001694930205548761 0.09372006013479695
vt 0.7631749999999999 0.862384375
vt 0.74575 0.87700625
vt 0.734375 0.84575625
vt 0.84375 0.28125
vt 0.875 0.28125
vt 0.875 0.34375
vt 0.84375 0.34375
vt 0.7671250000000001 0.83998125
vt 0.7631749999999999 0.862384375
vt 0.734375 0.84575625
vt 0.47725 0.9053475656736232
vt 0.5 0.9053475656736232
vt 0.5 0.9678475656736232
vt 0.47725 0.9678475656736232
vt 0.75575 0.8202812500000001
vt 0.7671250000000001 0.83998125
vt 0.734375 0.84575625
vt 0.1961676445061568 0.8916102134048779
vt 0.21875 0.8943669724349148
vt 0.21117648618121732 0.9564064106048137
vt 0.18859413068737413 0.9536496515747768
vt 0.734375 0.8125
vt 0.75575 0.8202812500000001
vt 0.734375 0.84575625
vt 0.65625 0.125
vt 0.6875 0.125
vt 0.6875 0.1875
vt 0.65625 0.1875
vt 0.713 0.8202812500000001
vt 0.734375 0.8125
vt 0.734375 0.84575625
vt 0.84375 0.9375
vt 0.875 0.9375
vt 0.875 1
vt 0.84375 1
vt 0.7016249999999999 0.83998125
vt 0.713 0.8202812500000001
vt 0.734375 0.84575625
vt 0.84375 0.46875
vt 0.875 0.46875
vt 0.875 0.53125
vt 0.84375 0.53125
vt 0.74575 0.87700625
vt 0.723 0.87700625
vt 0.734375 0.84575625
vt 0 0.71875
vt 0.03125 0.71875
vt 0.03125 0.78125
vt 0 0.78125
vt 0.705575 0.862384375
vt 0.7016249999999999 0.83998125
vt 0.734375 0.84575625
vt 0.09375 0.7351655273188
vt 0.11649999999999999 0.7351655273188
vt 0.11649999999999999 0.7976655273188
vt 0.09375 0.7976655273188
vt 0.723 0.87700625
vt 0.705575 0.862384375
vt 0.734375 0.84575625
vt 0.84375 0.375
vt 0.875 0.375
vt 0.875 0.4375
vt 0.84375 0.4375
vt 0.44597791841096657 0.9718892407293974
vt 0.4479616455642114 0.9945494514267211
vt 0.3856997670168183 1
vt 0.3837160398635735 0.9773397893026763
vt 0.136487318446386 0.9772604991304359
vt 0.1357962321977223 1
vt 0.073325075962656 0.99810141140477
vt 0.07401616221131971 0.9753619105352059
vt 0.15625 0.875
vt 0.15625 0.90625
vt 0.09375 0.90625
vt 0.09375 0.875
vt 0.625 0.1875
vt 0.59375 0.1875
vt 0.59375 0.125
vt 0.625 0.125
vt 0.5800437308689512 0.8233053671148238
vt 0.5800437308689512 0.8005553671148238
vt 0.6425437308689512 0.8005553671148238
vt 0.6425437308689512 0.8233053671148238
vt 0.1494162329964888 0.84375
vt 0.14866080172494311 0.8210125457978698
vt 0.21112633524727897 0.8189371851617553
vt 0.21188176651882468 0.8416746393638854
vt 0.6196018395167848 0.875
vt 0.6196018395167848 0.89775
vt 0.5571018395167848 0.89775
vt 0.5571018395167848 0.875
vt 0.037731474403339925 0.6799928231967081
vt 0.037731474403339925 0.657245948196708
vt 0.10023147440333993 0.657245948196708
vt 0.10023147440333993 0.6799928231967081
vt 0.7239252840475547 0.9866476032596034
vt 0.7239252840475547 0.9638976032596035
vt 0.7864252840475547 0.9638976032596035
vt 0.7864252840475547 0.9866476032596034
vt 0.5444249999999999 0.268634375
vt 0.527 0.28325625
vt 0.515625 0.25200625
vt 0.71875 0.09375
vt 0.75 0.09375
vt 0.75 0.21875
vt 0.71875 0.21875
vt 0.5483750000000001 0.24623125
vt 0.5444249999999999 0.268634375
vt 0.515625 0.25200625
vt 0.010711195116574923 0.8240342969717493
vt 0.03345807011657492 0.8240342969717493
vt 0.03345807011657492 0.9490342969717495
vt 0.010711195116574923 0.9490342969717495
vt 0.537 0.22653124999999996
vt 0.5483750000000001 0.24623125
vt 0.515625 0.25200625
vt 0.2971386637632129 0.864853644827858
vt 0.3184777554051982 0.8569756063562219
vt 0.3617696277592907 0.974239470304486
vt 0.34043053611730545 0.9821175087761219
vt 0.515625 0.21875
vt 0.537 0.22653124999999996
vt 0.515625 0.25200625
vt 0.75 0.5
vt 0.78125 0.5
vt 0.78125 0.625
vt 0.75 0.625
vt 0.49425 0.22653124999999996
vt 0.515625 0.21875
vt 0.515625 0.25200625
vt 0.1875 0.09375
vt 0.21875 0.09375
vt 0.21875 0.21875
vt 0.1875 0.21875
vt 0.482875 0.24623125
vt 0.49425 0.22653124999999996
vt 0.515625 0.25200625
vt 0.1529052950484295 0.53125
vt 0.1749109844069176 0.5370093366044493
vt 0.1432619303915352 0.6579363285455846
vt 0.12125624103304711 0.6521769919411353
vt 0.486825 0.268634375
vt 0.482875 0.24623125
vt 0.515625 0.25200625
vt 0.25118572780569276 0.6674902647787528
vt 0.27393249207318615 0.6674192885523798
vt 0.27432252491491294 0.7924186800484281
vt 0.2515757606474195 0.7924896562748013
vt 0.50425 0.28325625
vt 0.486825 0.268634375
vt 0.515625 0.25200625
vt 0.78125 0.09375
vt 0.8125 0.09375
vt 0.8125 0.21875
vt 0.78125 0.21875
vt 0.527 0.28325625
vt 0.50425 0.28325625
vt 0.515625 0.25200625
vt 0.75 0.65625
vt 0.78125 0.65625
vt 0.78125 0.78125
vt 0.75 0.78125
vt 0.8085032227016129 0.9846701031980772
vt 0.7864252840475547 0.9866467801420342
vt 0.7864252840475547 0.9638976032596035
vt 0.7991630641953572 0.9645843584470599
vt 0.5433529870959187 0.8756877422446049
vt 0.5571018395167848 0.8750004734767677
vt 0.5571018395167848 0.89775
vt 0.5366481604832152 0.8957760900141255
vt 0.3617696277592907 0.974239470304486
vt 0.3837158840621778 0.9773380095758385
vt 0.3856997670168183 1
vt 0.3415048675085043 0.9817208834570527
vt 0.1432619303915352 0.6579363285455846
vt 0.10023147440333993 0.6799963999865215
vt 0.10023147440333993 0.657245948196708
vt 0.12152845145178334 0.6522482349457602
vt 0.27432252491491294 0.7924186800484281
vt 0.21188175540073945 0.8416743047246362
vt 0.21112633524727897 0.8189371851617553
vt 0.2515939070936296 0.7924895996528458
vt 0.6292504794667771 0.36870007257116266
vt 0.6292504794667773 0.46875
vt 0.6084168986184982 0.45961684627695065
vt 0.6096677873631604 0.38011997647317486
vt 0.6520004794667772 0.368703125
vt 0.6520004794667772 0.46875
vt 0.6292504794667773 0.46875
vt 0.6292504794667773 0.368703125
vt 0.6715627284911286 0.3800950950433374
vt 0.6728331013815018 0.45961284580329365
vt 0.6520004794667772 0.46875
vt 0.6520004794667772 0.3687298010634227
vt 0.03345807011657492 0.9490342969717495
vt 0.07401616221131971 0.9753619105352059
vt 0.07332504672161992 0.9981023735517767
vt 0.01075658832814036 0.9490342969717495
vt 0.7239252840475547 0.9638985729746385
vt 0.7072676016863411 0.9538964507782727
vt 0.6914967772983871 0.9375
vt 0.7194521577953523 0.94548078454621
vt 0.7072681969814989 0.9538968082238515
vt 0.7239252840475547 0.9638985729746385
vt 0.7239252840475547 0.9866476032596034
vt 0.7099624069453851 0.9752718608154943
vt 0.02107390749388661 0.6472419638954685
vt 0.03773147440333992 0.6572439639790874
vt 0.037731474403339925 0.6799928231967081
vt 0.012589015593082398 0.6559552747020975
vt 0.11649999999999999 0.7976655273188
vt 0.14866080172494311 0.8210125457978698
vt 0.14941612352611194 0.8437467050904915
vt 0.09591551517222255 0.7976655273188
vt 0.5172987775816877 0.7667544436010529
vt 0.5800437308689512 0.8005573280509836
vt 0.5800437308689512 0.8233053671148238
vt 0.4967881875560771 0.7754674593858975
vt 0.5713071695449236 0.84375
vt 0.4824562691310488 0.7931331974659728
vt 0.49679777659252966 0.7754729691624573
vt 0.5800437308689512 0.8233053671148238
vt 0.5 0.9678475656736232
vt 0.4479616455642114 0.9945494514267211
vt 0.44597788155140333 0.9718888196808334
vt 0.47733371989261913 0.9678475656736232
vt 0.21117648618121732 0.9564064106048137
vt 0.13579632271912281 0.999997021483976
vt 0.136487318446386 0.9772604991304359
vt 0.18962375856285993 0.9537753442176057
vt 0.6694249999999999 0.268634375
vt 0.652 0.28325625
vt 0.640625 0.25200625
vt 0.53125 0.34375
vt 0.5625 0.34375
vt 0.5625 0.71875
vt 0.53125 0.71875
vt 0.777 0.40424375
vt 0.7944249999999999 0.418865625
vt 0.765625 0.43549375
vt 0.6733750000000001 0.24623125
vt 0.6694249999999999 0.268634375
vt 0.640625 0.25200625
vt 0 0.21875
vt 0.03125 0.21875
vt 0.03125 0.59375
vt 0 0.59375
vt 0.7944249999999999 0.418865625
vt 0.7983750000000001 0.44126875
vt 0.765625 0.43549375
vt 0.662 0.22653124999999996
vt 0.6733750000000001 0.24623125
vt 0.640625 0.25200625
vt 0.28125 0.125
vt 0.3125 0.125
vt 0.3125 0.5
vt 0.28125 0.5
vt 0.7983750000000001 0.44126875
vt 0.787 0.46096875000000004
vt 0.765625 0.43549375
vt 0.640625 0.21875
vt 0.662 0.22653124999999996
vt 0.640625 0.25200625
vt 0.46875 0.34375
vt 0.5 0.34375
vt 0.5 0.71875
vt 0.46875 0.71875
vt 0.787 0.46096875000000004
vt 0.765625 0.46875
vt 0.765625 0.43549375
vt 0.61925 0.22653124999999996
vt 0.640625 0.21875
vt 0.640625 0.25200625
vt 0.125 0.125
vt 0.15625 0.125
vt 0.15625 0.5
vt 0.125 0.5
vt 0.765625 0.46875
vt 0.74425 0.46096875000000004
vt 0.765625 0.43549375
vt 0.6078749999999999 0.24623125
vt 0.61925 0.22653124999999996
vt 0.640625 0.25200625
vt 0.34375 0.125
vt 0.375 0.125
vt 0.375 0.5
vt 0.34375 0.5
vt 0.74425 0.46096875000000004
vt 0.7328749999999999 0.44126875
vt 0.765625 0.43549375
vt 0.611825 0.268634375
vt 0.6078749999999999 0.24623125
vt 0.640625 0.25200625
vt 0.0625 0.21875
vt 0.09375 0.21875
vt 0.09375 0.59375
vt 0.0625 0.59375
vt 0.7328749999999999 0.44126875
vt 0.736825 0.418865625
vt 0.765625 0.43549375
vt 0.62925 0.28325625
vt 0.611825 0.268634375
vt 0.640625 0.25200625
vt 0.40625 0.125
vt 0.4375 0.125
vt 0.4375 0.5
vt 0.40625 0.5
vt 0.736825 0.418865625
vt 0.75425 0.40424375
vt 0.765625 0.43549375
vt 0.652 0.28325625
vt 0.62925 0.28325625
vt 0.640625 0.25200625
vt 0.21875 0.25
vt 0.25 0.25
vt 0.25 0.625
vt 0.21875 0.625
vt 0.75425 0.40424375
vt 0.777 0.40424375
vt 0.765625 0.43549375
vt 0.65625 1
vt 0.53125 1
vt 0.53125 0.9375
vt 0.65625 0.9375
vt 0.71875 0.6875
vt 0.71875 0.75
vt 0.59375 0.75
vt 0.59375 0.6875
vt 0.3125 0.6875
vt 0.4375 0.6875
vt 0.4375 0.8125
vt 0.3125 0.8125
vt 0.4375 0.53125
vt 0.4375 0.65625
vt 0.3125 0.65625
vt 0.3125 0.53125
vt 0.71875 0.59375
vt 0.71875 0.65625
vt 0.59375 0.65625
vt 0.59375 0.59375
vt 0.71875 0.5625
vt 0.59375 0.5625
vt 0.59375 0.5
vt 0.71875 0.5
vt 0.7944249999999999 0.329128125
vt 0.777 0.34375
vt 0.765625 0.3125
vt 0.9094258670830369 0.2300809317419742
vt 0.9084255617003053 0.24141186348394839
vt 0.84375 0.24141186348394839
vt 0.8457506107654631 0.21875
vt 0.7983750000000001 0.306725
vt 0.7944249999999999 0.329128125
vt 0.765625 0.3125
vt 0.09375 0.1584255617003053
vt 0.07383093174197418 0.15942586708303685
vt 0.0625 0.0957506107654631
vt 0.09375 0.09375
vt 0.787 0.287025
vt 0.7983750000000001 0.306725
vt 0.765625 0.3125
vt 0.84375 0.6271755617003053
vt 0.8238309317419742 0.6281758670830369
vt 0.8125 0.5645006107654631
vt 0.84375 0.5625
vt 0.765625 0.27924375
vt 0.787 0.287025
vt 0.765625 0.3125
vt 0.84375 0.8771755617003053
vt 0.8238309317419742 0.8781758670830369
vt 0.8125 0.8145006107654631
vt 0.84375 0.8125
vt 0.74425 0.287025
vt 0.765625 0.27924375
vt 0.765625 0.3125
vt 0.84375 0.7521755617003053
vt 0.8238309317419742 0.7531758670830369
vt 0.8125 0.6895006107654631
vt 0.84375 0.6875
vt 0.7328749999999999 0.306725
vt 0.74425 0.287025
vt 0.765625 0.3125
vt 0.5 0.1584255617003053
vt 0.4800809317419742 0.15942586708303685
vt 0.46875 0.0957506107654631
vt 0.5 0.09375
vt 0.736825 0.329128125
vt 0.7328749999999999 0.306725
vt 0.765625 0.3125
vt 0.4375 0.9084255617003053
vt 0.4175809317419742 0.9094258670830369
vt 0.40625 0.8457506107654631
vt 0.4375 0.84375
vt 0.75425 0.34375
vt 0.736825 0.329128125
vt 0.765625 0.3125
vt 0.5625 0.1584255617003053
vt 0.5425809317419742 0.15942586708303685
vt 0.53125 0.0957506107654631
vt 0.5625 0.09375
vt 0.777 0.34375
vt 0.75425 0.34375
vt 0.765625 0.3125
vt 0.21875 0.7209255617003053
vt 0.1988309317419742 0.7219258670830369
vt 0.1875 0.6582506107654631
vt 0.21875 0.65625
vn 0.5293780115268 0.6308881470774392 -0.567220474585612
vn 0 -1 0
vn 0.6427876096865396 0 0.7660444431189778
vn 0 -1 0
vn 0.9848077530122082 0 0.1736481776669303
vn 0 -1 0
vn 0.8660254037844386 0 -0.5000000000000001
vn 0 -1 0
vn 0.34202014332566844 0 -0.9396926207859085
vn 0 -1 0
vn -0.34202014332566844 0 -0.9396926207859085
vn 0 -1 0
vn -0.8660254037844385 0 -0.5000000000000003
vn 0 -1 0
vn 0 0 1
vn 0 -1 0
vn -0.9848077530122082 0 0.1736481776669303
vn 0 -1 0
vn -0.6427876096865401 0 0.7660444431189776
vn 0.8660254037844385 -0.5000000000000007 0
vn 0.984807753012208 0.17364817766693103 -3.05031269071624e-16
vn 0.6427876096865413 0.7660444431189766 0
vn 0 1 0
vn -0.6427876096865409 0.7660444431189769 -1.3726407108223017e-15
vn -0.9848077530122081 0.1736481776669307 0
vn 0.3420201433256681 -0.9396926207859088 0
vn -0.8660254037844386 -0.5000000000000002 0
vn -0.34202014332566893 -0.9396926207859085 0
vn 0 -1 0
vn 0.6427876096865396 0 0.7660444431189778
vn 0 -1 0
vn 0.984807753012208 0 0.1736481776669309
vn 0 -1 0
vn 0.8660254037844384 -4.7661135792441125e-17 -0.5000000000000006
vn 0 -1 0
vn 0.34202014332566893 -9.53222715848822e-18 -0.9396926207859084
vn 0 -1 0
vn -0.3420201433256692 2.859668147546468e-17 -0.9396926207859082
vn 0 -1 0
vn -0.8660254037844383 -4.7661135792441125e-17 -0.5000000000000008
vn 0 -1 0
vn -0.984807753012208 2.859668147546466e-17 0.17364817766693058
vn 0 -1 0
vn -0.6427876096865388 1.9064454316976487e-17 0.7660444431189785
vn 0 -1 0
vn -2.4402501525729824e-15 1.3546109526157881e-31 1
vn -0.3315273082182736 -0.9108637932622793 -0.24579827914246669
vn 0.3387919388060544 -0.9308232017628889 0.13707001590398707
vn 0.8582484305519843 -0.4955099624107626 -0.13371427974132283
vn -0.8272101770413111 -0.47759001839119924 -0.29602550115214243
vn -0.9764746869952043 0.17217883329610725 0.1298138475757081
vn -0.5480580443823061 0.6531501433427724 0.5225201146742182
vn 0 0.7808688094430304 0.6246950475544242
vn 0.5566204448732748 0.6633544148891145 0.5001345824837533
vn 0.9791524462001254 0.17265099449177565 0.10701458405895636
vn -0.25418333785136016 -0.9184922089462243 -0.3029239060619461
vn -0.3208109428371772 -0.8814208213590915 -0.3466665178966471
vn -0.8123218229415365 -0.46899422314390393 -0.3466665178966458
vn -0.9495898253768894 0.1674383068201856 -0.26503504853109217
vn -0.5393385302626423 0.6427586310649827 -0.5440361127403237
vn -0.211895233983274 0.7849649157176586 -0.5821773706590996
vn 0.8417418303713099 -0.4859798723530447 0.23514730419648774
vn 0.9626152958761183 0.16973504870562228 -0.21109667308186952
vn 0 -1 0
vn 0.6427876096865396 0 0.7660444431189778
vn 0 1 0
vn 0 -1 0
vn 0.9848077530122081 0 0.1736481776669303
vn 0 1 0
vn 0 -1 0
vn 0.8660254037844387 0 -0.5000000000000001
vn 0 1 0
vn 0 -1 0
vn 0.342020143325669 0 -0.9396926207859084
vn 0 1 0
vn 0 -1 0
vn -0.342020143325669 0 -0.9396926207859084
vn 0 1 0
vn 0 -1 0
vn -0.8660254037844385 0 -0.5000000000000003
vn 0 1 0
vn 0 -1 0
vn -0.9848077530122081 0 0.1736481776669303
vn 0 1 0
vn 0 -1 0
vn -0.6427876096865401 0 0.7660444431189775
vn 0 1 0
vn 0 -1 0
vn 0 0 1
vn 0 1 0
vn 1 0 0
vn -1 0 0
vn 0 1 0
vn 0 -1 0
vn 0 0 1
vn 0 0 -1
vn 0 1 0
vn -0.6235955787237413 -0.24253562503633294 0.7431722712698837
vn 0 1 0
vn -0.95540385566977 -0.24253562503633308 0.1684634772274772
vn 0 1 0
vn -0.8401680504168059 -0.24253562503633277 -0.4850712500726664
vn 0 1 0
vn -0.3318082769460289 -0.24253562503633275 -0.9116357484973605
vn 0 1 0
vn 0.3318082769460289 -0.24253562503633286 -0.9116357484973605
vn 0 1 0
vn 0.8401680504168056 -0.24253562503633283 -0.48507125007266655
vn 0 1 0
vn 0.9554038556697703 -0.24253562503633294 0.16846347722747645
vn 0 1 0
vn 0.623595578723742 -0.24253562503633308 0.7431722712698831
vn 0 1 0
vn 0 -0.24253562503633297 0.9701425001453319
usemtl m_6acad55a-a5ec-12ca-5b1f-6b31183f9e1d
f 2/1/1 4/2/1 3/3/1 1/4/1
f 8/5/2 6/6/2 5/7/2
f 6/8/3 8/9/3 9/10/3 7/11/3
f 10/12/4 8/13/4 5/14/4
f 8/15/5 10/16/5 11/17/5 9/18/5
f 12/19/6 10/20/6 5/21/6
f 10/22/7 12/23/7 13/24/7 11/25/7
f 14/26/8 12/27/8 5/28/8
f 12/29/9 14/30/9 15/31/9 13/32/9
f 16/33/10 14/34/10 5/35/10
f 14/36/11 16/37/11 17/38/11 15/39/11
f 18/40/12 16/41/12 5/42/12
f 16/43/13 18/44/13 19/45/13 17/46/13
f 6/47/14 20/48/14 5/49/14
f 20/50/15 6/51/15 7/52/15 21/53/15
f 22/54/16 18/55/16 5/56/16
f 18/57/17 22/58/17 23/59/17 19/60/17
f 20/61/18 22/62/18 5/63/18
f 22/64/19 20/65/19 21/66/19 23/67/19
f 24/68/20 26/69/20 27/70/20 25/71/20
f 26/72/21 28/73/21 29/74/21 27/75/21
f 28/76/22 30/77/22 31/78/22 29/79/22
f 30/80/23 32/81/23 33/82/23 31/83/23
f 32/84/24 34/85/24 35/86/24 33/87/24
f 34/88/25 36/89/25 37/90/25 35/91/25
f 38/92/26 24/93/26 25/94/26 39/95/26
f 36/96/27 40/97/27 41/98/27 37/99/27
f 40/100/28 38/101/28 39/102/28 41/103/28
f 45/104/29 43/105/29 42/106/29
f 43/107/30 45/108/30 46/109/30 44/110/30
f 47/111/31 45/112/31 42/113/31
f 45/114/32 47/115/32 48/116/32 46/117/32
f 49/118/33 47/119/33 42/120/33
f 47/121/34 49/122/34 50/123/34 48/124/34
f 51/125/35 49/126/35 42/127/35
f 49/128/36 51/129/36 52/130/36 50/131/36
f 53/132/37 51/133/37 42/134/37
f 51/135/38 53/136/38 54/137/38 52/138/38
f 55/139/39 53/140/39 42/141/39
f 53/142/40 55/143/40 56/144/40 54/145/40
f 57/146/41 55/147/41 42/148/41
f 55/149/42 57/150/42 58/151/42 56/152/42
f 59/153/43 57/154/43 42/155/43
f 57/156/44 59/157/44 60/158/44 58/159/44
f 43/160/45 59/161/45 42/162/45
f 59/163/46 43/164/46 44/165/46 60/166/46
f 54/167/47 41/168/47 39/169/47 52/170/47
f 52/171/48 39/172/48 25/173/48 50/174/48
f 50/175/49 25/176/49 27/177/49 48/178/49
f 56/179/50 37/180/50 41/181/50 54/182/50
f 58/183/51 35/184/51 37/185/51 56/186/51
f 60/187/52 33/188/52 35/189/52 58/190/52
f 44/191/53 31/192/53 33/193/53 60/194/53
f 46/195/54 29/196/54 31/197/54 44/198/54
f 48/199/55 27/200/55 29/201/55 46/202/55
f 38/203/56 7/204/56 9/205/56 24/206/56
f 7/207/57 38/208/57 40/209/57 21/210/57
f 21/211/58 40/212/58 36/213/58 23/214/58
f 23/215/59 36/216/59 34/217/59 19/218/59
f 19/219/60 34/220/60 32/221/60 17/222/60
f 30/223/61 15/224/61 17/225/61 32/226/61
f 11/227/62 26/228/62 24/229/62 9/230/62
f 13/231/63 28/232/63 26/233/63 11/234/63
f 65/235/64 63/236/64 61/237/64
f 63/238/65 65/239/65 66/240/65 64/241/65
f 64/242/66 66/243/66 62/244/66
f 67/245/67 65/246/67 61/247/67
f 65/248/68 67/249/68 68/250/68 66/251/68
f 66/252/69 68/253/69 62/254/69
f 69/255/70 67/256/70 61/257/70
f 67/258/71 69/259/71 70/260/71 68/261/71
f 68/262/72 70/263/72 62/264/72
f 71/265/73 69/266/73 61/267/73
f 69/268/74 71/269/74 72/270/74 70/271/74
f 70/272/75 72/273/75 62/274/75
f 73/275/76 71/276/76 61/277/76
f 71/278/77 73/279/77 74/280/77 72/281/77
f 72/282/78 74/283/78 62/284/78
f 75/285/79 73/286/79 61/287/79
f 73/288/80 75/289/80 76/290/80 74/291/80
f 74/292/81 76/293/81 62/294/81
f 77/295/82 75/296/82 61/297/82
f 75/298/83 77/299/83 78/300/83 76/301/83
f 76/302/84 78/303/84 62/304/84
f 79/305/85 77/306/85 61/307/85
f 77/308/86 79/309/86 80/310/86 78/311/86
f 78/312/87 80/313/87 62/314/87
f 63/315/88 79/316/88 61/317/88
f 79/318/89 63/319/89 64/320/89 80/321/89
f 80/322/90 64/323/90 62/324/90
f 82/325/91 81/326/91 83/327/91 84/328/91
f 87/329/92 85/330/92 86/331/92 88/332/92
f 85/333/93 81/334/93 82/335/93 86/336/93
f 84/337/94 83/338/94 87/339/94 88/340/94
f 83/341/95 81/342/95 85/343/95 87/344/95
f 86/345/96 82/346/96 84/347/96 88/348/96
f 91/349/97 90/350/97 89/351/97
f 99/352/98 100/353/98 90/354/98 91/355/98
f 92/356/99 91/357/99 89/358/99
f 107/359/100 99/360/100 91/361/100 92/362/100
f 93/363/101 92/364/101 89/365/101
f 106/366/102 107/367/102 92/368/102 93/369/102
f 94/370/103 93/371/103 89/372/103
f 105/373/104 106/374/104 93/375/104 94/376/104
f 95/377/105 94/378/105 89/379/105
f 104/380/106 105/381/106 94/382/106 95/383/106
f 96/384/107 95/385/107 89/386/107
f 103/387/108 104/388/108 95/389/108 96/390/108
f 97/391/109 96/392/109 89/393/109
f 102/394/110 103/395/110 96/396/110 97/397/110
f 98/398/111 97/399/111 89/400/111
f 101/401/112 102/402/112 97/403/112 98/404/112
f 90/405/113 98/406/113 89/407/113
f 100/408/114 101/409/114 98/410/114 90/411/114