# Made in Blockbench 4.11.2
mtllib pyramid_sub.mtl

o pyramid
v 0 2.5 0
v 1.25 0 1.25
v 1.25 0 -1.25
v -1.25 0 1.25
v -1.25 0 -1.25
vt 0.3125 0.1640625
vt 0.3125 0.4765625
vt 0 0.4765625
vt 0 0.1640625
vt 0.42377014581424527 0.3229694338181195
vt 0.7090423541857547 0.19539193920859943
vt 0.7090423541857547 0.578125
vt 0.0018951458142452693 0.7448444338181195
vt 0.28716735418575473 0.6172669392085994
vt 0.2871673541857547 1
vt 0.21283264581424527 0.5339069338181195
vt 0.49810485418575473 0.40632943920859943
vt 0.4981048541857547 0.7890625
vt 0.5097076458142453 0.7448444338181195
vt 0.7949798541857547 0.6172669392085994
vt 0.7949798541857547 1
vn 0 -1 0
vn 0.8944271909999161 0.44721359549995804 0
vn 0 0.44721359549995804 0.8944271909999161
vn 0 0.44721359549995804 -0.8944271909999161
vn -0.8944271909999161 0.44721359549995804 0
usemtl m_d33bb394-73af-8e63-ca0b-34443bcbdea2
f 3/1/1 2/2/1 4/3/1 5/4/1
f 2/5/2 3/6/2 1/7/2
f 4/8/3 2/9/3 1/10/3
f 3/11/4 5/12/4 1/13/4
f 5/14/5 4/15/5 1/16/5