# Made in Blockbench 4.11.2
mtllib Wall_short.mtl

o cuboid
v 0.5 0.5 0.5
v 0.5 0 0.5
v 0.5 0 -0.5
v -0.5 0.5 0.5
v -0.5 0 0.5
v -0.5 0 -0.5
v 0.5 0.5 0
v -0.5 0.5 0
v -0.5 0 0
v 0.5 0 0
v -0.5 0.25 0
v -0.5 0.25 0.5
v 0.5 0.25 0.5
v 0.5 0.25 0
vt 0.25 0.75
vt 0.25 0.875
vt 0 0.875
vt 0 0.75
vt 0.515625 0.875
vt 0.515625 0.9375
vt 0.265625 0.9375
vt 0.265625 0.875
vt 0.515625 0.734375
vt 0.515625 0.859375
vt 0.265625 0.859375
vt 0.265625 0.734375
vt 0.390625 0.59375
vt 0.390625 0.65625
vt 0.265625 0.65625
vt 0.265625 0.59375
vt 0 1
vt 0 0.875
vt 0.25 0.875
vt 0.25 1
vt 0.53125 0.59375
vt 0.53125 0.65625
vt 0.40625 0.65625
vt 0.40625 0.59375
vt 0.265625 0.71875
vt 0.265625 0.65625
vt 0.390625 0.65625
vt 0.390625 0.71875
vt 0.265625 1
vt 0.265625 0.9375
vt 0.515625 0.9375
vt 0.515625 1
vt 0.40625 0.71875
vt 0.40625 0.65625
vt 0.53125 0.65625
vt 0.53125 0.71875
vt 0.25 0.5625
vt 0.25 0.734375
vt 0 0.734375
vt 0 0.5625
vt 0.296875 0.578125
vt 0.171875 0.453125
vt 0.296875 0.453125
vt 0.4375 0.453125
vt 0.3125 0.578125
vt 0.3125 0.453125
vn 0 -1 0
vn 0 0 1
vn 0 1 0
vn -1 0 0
vn 0 -1 0
vn 1 0 0
vn -1 0 0
vn 0 0 1
vn 1 0 0
vn 0 0.7071067811865476 -0.7071067811865476
vn -1 0 0
vn 1 0 0
usemtl m_4c1c9fd0-23d4-48d7-7dd0-70293fb15105
f 3/1/1 10/2/1 9/3/1 6/4/1
f 2/5/2 13/6/2 12/7/2 5/8/2
f 1/9/3 7/10/3 8/11/3 4/12/3
f 5/13/4 12/14/4 11/15/4 9/16/4
f 5/17/5 9/18/5 10/19/5 2/20/5
f 10/21/6 14/22/6 13/23/6 2/24/6
f 8/25/7 11/26/7 12/27/7 4/28/7
f 4/29/8 12/30/8 13/31/8 1/32/8
f 1/33/9 13/34/9 14/35/9 7/36/9
f 6/37/10 8/38/10 7/39/10 3/40/10
f 8/41/11 6/42/11 9/43/11
f 3/44/12 7/45/12 10/46/12