# Made in Blockbench 4.11.2
mtllib Wall_tall.mtl

o cuboid
v 0.5 1 0.5
v 0.5 0 0.5
v 0.5 0 -0.5
v -0.5 1 0.5
v -0.5 0 0.5
v -0.5 0 -0.5
v 0.5 1 0
v -0.5 1 0
v -0.5 0 0
v 0.5 0 0
v -0.5 0.5 0
v -0.5 0.5 0.5
v 0.5 0.5 0.5
v 0.5 0.5 0
vt 0.515625 0.75
vt 0.515625 0.875
vt 0.265625 0.875
vt 0.265625 0.75
vt 0.515625 0.484375
vt 0.515625 0.609375
vt 0.265625 0.609375
vt 0.265625 0.484375
vt 0.25 0.578125
vt 0.25 0.703125
vt 0 0.703125
vt 0 0.578125
vt 0.125 0.3125
vt 0.125 0.4375
vt 0 0.4375
vt 0 0.3125
vt 0.265625 1
vt 0.265625 0.875
vt 0.515625 0.875
vt 0.515625 1
vt 0.65625 0.75
vt 0.65625 0.875
vt 0.53125 0.875
vt 0.53125 0.75
vt 0 0.5625
vt 0 0.4375
vt 0.125 0.4375
vt 0.125 0.5625
vt 0.265625 0.734375
vt 0.265625 0.609375
vt 0.515625 0.609375
vt 0.515625 0.734375
vt 0.53125 1
vt 0.53125 0.875
vt 0.65625 0.875
vt 0.65625 1
vt 0.25 0.71875
vt 0.25 1
vt 0 1
vt 0 0.71875
vt 0.265625 0.3125
vt 0.140625 0.5625
vt 0.140625 0.3125
vt 0.578125 0.5625
vt 0.453125 0.3125
vt 0.578125 0.3125
vn 0 -1 0
vn 0 0 1
vn 0 1 0
vn -1 0 0
vn 0 -1 0
vn 1 0 0
vn -1 0 0
vn 0 0 1
vn 1 0 0
vn 0 0.44721359549995804 -0.8944271909999161
vn 1 0 0
vn -1 0 0
usemtl m_63e4509f-3fd7-5e6a-d806-ac2aeaf22125
f 3/1/1 10/2/1 9/3/1 6/4/1
f 2/5/2 13/6/2 12/7/2 5/8/2
f 1/9/3 7/10/3 8/11/3 4/12/3
f 5/13/4 12/14/4 11/15/4 9/16/4
f 5/17/5 9/18/5 10/19/5 2/20/5
f 10/21/6 14/22/6 13/23/6 2/24/6
f 8/25/7 11/26/7 12/27/7 4/28/7
f 4/29/8 12/30/8 13/31/8 1/32/8
f 1/33/9 13/34/9 14/35/9 7/36/9
f 6/37/10 8/38/10 7/39/10 3/40/10
f 3/41/11 7/42/11 10/43/11
f 8/44/12 6/45/12 9/46/12