# Blender 4.3.0
# www.blender.org
mtllib octahedron.mtl
o pyramid
v 0.000000 1.250000 -0.000000
v 0.312500 0.625000 0.312500
v 0.312500 0.625000 -0.312500
v -0.312500 0.625000 0.312500
v -0.312500 0.625000 -0.312500
v 0.000000 -0.000000 -0.000000
v 0.312500 0.625000 -0.312500
v 0.312500 0.625000 0.312500
v -0.312500 0.625000 -0.312500
v -0.312500 0.625000 0.312500
vn -0.0000 -1.0000 -0.0000
vn 0.8944 0.4472 -0.0000
vn -0.0000 0.4472 0.8944
vn -0.0000 0.4472 -0.8944
vn -0.8944 0.4472 -0.0000
vn -0.0000 1.0000 -0.0000
vn 0.8944 -0.4472 -0.0000
vn -0.0000 -0.4472 -0.8944
vn -0.0000 -0.4472 0.8944
vn -0.8944 -0.4472 -0.0000
vt 0.625000 1.000000
vt 0.000000 0.375000
vt 0.625000 0.375000
vt 0.000000 0.301225
vt 0.625000 0.301225
vt 0.312500 1.000000
vt 0.000000 1.000000
s 1
usemtl none
f 2/1/1 5/2/1 3/3/1
f 2/4/2 3/5/2 1/6/2
f 4/4/3 2/5/3 1/6/3
f 3/4/4 5/5/4 1/6/4
f 5/4/5 4/5/5 1/6/5
f 7/1/6 10/2/6 8/3/6
f 7/4/7 8/5/7 6/6/7
f 9/4/8 7/5/8 6/6/8
f 8/4/9 10/5/9 6/6/9
f 10/4/10 9/5/10 6/6/10
f 2/1/1 4/7/1 5/2/1
f 7/1/6 9/7/6 10/2/6
