# Blender 4.0.2
# www.blender.org
mtllib Sign_Post.mtl
o cylinder
v 0.000000 0.000000 0.000000
v 0.000000 0.250000 -0.000000
v 0.016747 0.000000 0.062500
v 0.016747 0.250000 0.062500
v 0.045753 0.000000 0.045753
v 0.045753 0.250000 0.045753
v 0.062500 0.000000 0.016747
v 0.062500 0.250000 0.016747
v 0.062500 -0.000000 -0.016747
v 0.062500 0.250000 -0.016747
v 0.045753 -0.000000 -0.045753
v 0.045753 0.250000 -0.045753
v 0.016747 -0.000000 -0.062500
v 0.016747 0.250000 -0.062500
v -0.016747 -0.000000 -0.062500
v -0.016747 0.250000 -0.062500
v -0.045753 -0.000000 -0.045753
v -0.045753 0.250000 -0.045753
v -0.062500 -0.000000 -0.016747
v -0.062500 0.250000 -0.016747
v -0.062500 0.000000 0.016747
v -0.062500 0.250000 0.016747
v -0.045753 0.000000 0.045753
v -0.045753 0.250000 0.045753
v -0.016747 0.000000 0.062500
v -0.016747 0.250000 0.062500
v 0.500000 0.750000 0.062500
v 0.500000 0.750000 -0.062500
v 0.500000 0.250000 0.062500
v 0.500000 0.250000 -0.062500
v -0.500000 0.750000 0.062500
v -0.500000 0.750000 -0.062500
v -0.500000 0.250000 0.062500
v -0.500000 0.250000 -0.062500
vn -0.0000 -1.0000 -0.0000
vn 0.5000 -0.0000 0.8660
vn -0.0000 1.0000 -0.0000
vn 0.8660 -0.0000 0.5000
vn 1.0000 -0.0000 -0.0000
vn 0.8660 -0.0000 -0.5000
vn 0.5000 -0.0000 -0.8660
vn -0.0000 -0.0000 -1.0000
vn -0.5000 -0.0000 -0.8660
vn -0.8660 -0.0000 -0.5000
vn -1.0000 -0.0000 -0.0000
vn -0.8660 -0.0000 0.5000
vn -0.5000 -0.0000 0.8660
vn -0.0000 -0.0000 1.0000
vt 0.214564 0.714564
vt 0.207311 0.718750
vt 0.203125 0.703125
vt 0.075058 0.656250
vt 0.066686 0.718750
vt 0.066686 0.656250
vt 0.332311 0.875000
vt 0.339564 0.879186
vt 0.328125 0.890625
vt 0.218750 0.707311
vt 0.011439 0.656250
vt 0.003067 0.718750
vt 0.003067 0.656250
vt 0.343750 0.886439
vt 0.218750 0.698939
vt 0.019811 0.656250
vt 0.011439 0.718750
vt 0.343750 0.894811
vt 0.214564 0.691686
vt 0.028183 0.656250
vt 0.019811 0.718750
vt 0.339564 0.902064
vt 0.207311 0.687500
vt 0.152064 0.656250
vt 0.143692 0.718750
vt 0.143692 0.656250
vt 0.332311 0.906250
vt 0.198939 0.687500
vt 0.160436 0.656250
vt 0.152064 0.718750
vt 0.323939 0.906250
vt 0.191686 0.691686
vt 0.168808 0.656250
vt 0.160436 0.718750
vt 0.316686 0.902064
vt 0.187500 0.698939
vt 0.105189 0.656250
vt 0.096817 0.718750
vt 0.096817 0.656250
vt 0.312500 0.894811
vt 0.187500 0.707311
vt 0.113561 0.656250
vt 0.105189 0.718750
vt 0.312500 0.886439
vt 0.191686 0.714564
vt 0.121933 0.656250
vt 0.113561 0.718750
vt 0.316686 0.879186
vt 0.198939 0.718750
vt 0.058314 0.656250
vt 0.049942 0.718750
vt 0.049942 0.656250
vt 0.323939 0.875000
vt 0.058314 0.718750
vt 0.265625 0.906250
vt 0.296875 0.781250
vt 0.296875 0.906250
vt 0.296875 0.765625
vt 0.265625 0.640625
vt 0.296875 0.640625
vt 0.515625 0.968750
vt 0.265625 1.000000
vt 0.265625 0.968750
vt 0.515625 0.953125
vt 0.265625 0.921875
vt 0.515625 0.921875
vt 0.250000 1.000000
vt 0.000000 0.875000
vt 0.250000 0.875000
vt 0.000000 0.859375
vt 0.250000 0.734375
vt 0.250000 0.859375
vt 0.075058 0.718750
vt 0.028183 0.718750
vt 0.168808 0.718750
vt 0.121933 0.718750
vt 0.265625 0.781250
vt 0.265625 0.765625
vt 0.515625 1.000000
vt 0.265625 0.953125
vt 0.000000 1.000000
vt 0.000000 0.734375
s 0
usemtl m_dd0f0a92-11c2-4535-b9a7-c8b84e6b20c2
f 5/1/1 3/2/1 1/3/1
f 5/4/2 4/5/2 3/6/2
f 4/7/3 6/8/3 2/9/3
f 7/10/1 5/1/1 1/3/1
f 7/11/4 6/12/4 5/13/4
f 6/8/3 8/14/3 2/9/3
f 9/15/1 7/10/1 1/3/1
f 9/16/5 8/17/5 7/11/5
f 8/14/3 10/18/3 2/9/3
f 11/19/1 9/15/1 1/3/1
f 11/20/6 10/21/6 9/16/6
f 10/18/3 12/22/3 2/9/3
f 13/23/1 11/19/1 1/3/1
f 13/24/7 12/25/7 11/26/7
f 12/22/3 14/27/3 2/9/3
f 15/28/1 13/23/1 1/3/1
f 15/29/8 14/30/8 13/24/8
f 14/27/3 16/31/3 2/9/3
f 17/32/1 15/28/1 1/3/1
f 17/33/9 16/34/9 15/29/9
f 16/31/3 18/35/3 2/9/3
f 19/36/1 17/32/1 1/3/1
f 19/37/10 18/38/10 17/39/10
f 18/35/3 20/40/3 2/9/3
f 21/41/1 19/36/1 1/3/1
f 21/42/11 20/43/11 19/37/11
f 20/40/3 22/44/3 2/9/3
f 23/45/1 21/41/1 1/3/1
f 23/46/12 22/47/12 21/42/12
f 22/44/3 24/48/3 2/9/3
f 25/49/1 23/45/1 1/3/1
f 25/50/13 24/51/13 23/52/13
f 24/48/3 26/53/3 2/9/3
f 3/2/1 25/49/1 1/3/1
f 3/6/14 26/54/14 25/50/14
f 26/53/3 4/7/3 2/9/3
f 27/55/5 30/56/5 28/57/5
f 31/58/11 34/59/11 33/60/11
f 27/61/3 32/62/3 31/63/3
f 29/64/1 34/65/1 30/66/1
f 27/67/14 33/68/14 29/69/14
f 28/70/8 34/71/8 32/72/8
f 5/4/2 6/73/2 4/5/2
f 7/11/4 8/17/4 6/12/4
f 9/16/5 10/21/5 8/17/5
f 11/20/6 12/74/6 10/21/6
f 13/24/7 14/30/7 12/25/7
f 15/29/8 16/34/8 14/30/8
f 17/33/9 18/75/9 16/34/9
f 19/37/10 20/43/10 18/38/10
f 21/42/11 22/47/11 20/43/11
f 23/46/12 24/76/12 22/47/12
f 25/50/13 26/54/13 24/51/13
f 3/6/14 4/5/14 26/54/14
f 27/55/5 29/77/5 30/56/5
f 31/58/11 32/78/11 34/59/11
f 27/61/3 28/79/3 32/62/3
f 29/64/1 33/80/1 34/65/1
f 27/67/14 31/81/14 33/68/14
f 28/70/8 30/82/8 34/71/8
