# Blender 4.3.0
# www.blender.org
mtllib wall_short.mtl
o cuboid
v 0.500000 0.500000 0.500000
v 0.500000 0.000000 0.500000
v 0.500000 -0.000000 -0.500000
v -0.500000 0.500000 0.500000
v -0.500000 0.000000 0.500000
v -0.500000 -0.000000 -0.500000
v 0.500000 0.500000 -0.000000
v -0.500000 0.500000 -0.000000
v -0.500000 0.000000 0.000000
v 0.500000 0.000000 0.000000
v -0.500000 0.250000 -0.000000
v -0.500000 0.250000 0.500000
v 0.500000 0.250000 0.500000
v 0.500000 0.250000 -0.000000
vn -0.0000 -1.0000 -0.0000
vn -0.0000 -0.0000 1.0000
vn -0.0000 1.0000 -0.0000
vn -1.0000 -0.0000 -0.0000
vn 1.0000 -0.0000 -0.0000
vn -0.0000 0.7071 -0.7071
vt 0.250000 0.875000
vt 0.000000 0.750000
vt 0.250000 0.750000
vt 0.515625 0.937500
vt 0.265625 0.875000
vt 0.515625 0.875000
vt 0.515625 0.859375
vt 0.265625 0.734375
vt 0.515625 0.734375
vt 0.390625 0.656250
vt 0.265625 0.593750
vt 0.390625 0.593750
vt 0.000000 0.875000
vt 0.250000 1.000000
vt 0.000000 1.000000
vt 0.531250 0.656250
vt 0.406250 0.593750
vt 0.531250 0.593750
vt 0.265625 0.656250
vt 0.390625 0.718750
vt 0.265625 0.718750
vt 0.265625 0.937500
vt 0.515625 1.000000
vt 0.265625 1.000000
vt 0.406250 0.656250
vt 0.531250 0.718750
vt 0.406250 0.718750
vt 0.250000 0.734375
vt 0.000000 0.562500
vt 0.250000 0.562500
vt 0.296875 0.578125
vt 0.171875 0.453125
vt 0.296875 0.453125
vt 0.437500 0.453125
vt 0.312500 0.578125
vt 0.312500 0.453125
vt 0.265625 0.859375
vt 0.000000 0.734375
s 1
usemtl m_4c1c9fd0-23d4-48d7-7dd0-70293fb15105
f 10/1/1 6/2/1 3/3/1
f 13/4/2 5/5/2 2/6/2
f 7/7/3 4/8/3 1/9/3
f 12/10/4 9/11/4 5/12/4
f 9/13/1 2/14/1 5/15/1
f 14/16/5 2/17/5 10/18/5
f 11/19/4 4/20/4 8/21/4
f 12/22/2 1/23/2 4/24/2
f 13/25/5 7/26/5 1/27/5
f 8/28/6 3/29/6 6/30/6
f 8/31/4 6/32/4 9/33/4
f 3/34/5 7/35/5 10/36/5
f 10/1/1 9/13/1 6/2/1
f 13/4/2 12/22/2 5/5/2
f 7/7/3 8/37/3 4/8/3
f 12/10/4 11/19/4 9/11/4
f 9/13/1 10/1/1 2/14/1
f 14/16/5 13/25/5 2/17/5
f 11/19/4 12/10/4 4/20/4
f 12/22/2 13/4/2 1/23/2
f 13/25/5 14/16/5 7/26/5
f 8/28/6 7/38/6 3/29/6
