# Blender 4.0.2
# www.blender.org
mtllib wand_hand.mtl
o cylinder
v 0.000000 0.853553 -0.353553
v 0.072169 0.234835 0.441942
v 0.072169 0.941942 -0.265165
v 0.144338 0.853553 -0.353553
v 0.072169 0.765165 -0.441942
v -0.072169 0.765165 -0.441942
v -0.144338 0.853553 -0.353553
v -0.072169 0.234835 0.441942
v -0.072169 0.941942 -0.265165
v -0.072169 0.411612 0.265165
v -0.144338 0.323223 0.176777
v -0.072169 0.588388 0.088388
v -0.144338 0.500000 -0.000000
v -0.072169 0.765165 -0.088388
v -0.144338 0.676777 -0.176777
v -0.072169 0.234835 0.088388
v -0.072169 0.411612 -0.088388
v -0.072169 0.588388 -0.265165
v 0.072169 0.234835 0.088388
v 0.072169 0.411612 -0.088388
v 0.072169 0.588388 -0.265165
v 0.144338 0.323223 0.176777
v 0.144338 0.500000 -0.000000
v 0.144338 0.676777 -0.176777
v 0.072169 0.411612 0.265165
v 0.072169 0.588388 0.088388
v 0.072169 0.765165 -0.088388
vn 0.8660 0.3536 0.3536
vn -0.0000 0.7071 -0.7071
vn 0.8660 -0.3536 -0.3536
vn -0.0000 -0.7071 -0.7071
vn -0.8660 -0.3536 -0.3536
vn -0.8660 0.3536 0.3536
vn -0.0000 0.7071 0.7071
vn -0.0000 1.0000 -0.0000
vn -0.7746 -0.6325 -0.0000
vn 0.7746 -0.6325 -0.0000
vt 0.115331 0.531250
vt 0.187500 0.406250
vt 0.187500 0.531250
vt 0.551709 0.343750
vt 0.587794 0.406250
vt 0.515625 0.406250
vt 0.036084 1.000000
vt 0.108253 0.875000
vt 0.108253 1.000000
vt 0.551709 0.468750
vt 0.323291 0.343750
vt 0.395459 0.468750
vt 0.323291 0.468750
vt 0.479541 0.468750
vt 0.172997 0.875000
vt 0.245166 1.000000
vt 0.172997 1.000000
vt 0.443456 0.406250
vt 0.437500 0.875000
vt 0.509669 1.000000
vt 0.437500 1.000000
vt 0.479541 0.343750
vt 0.323291 0.875000
vt 0.395459 1.000000
vt 0.323291 1.000000
vt 0.509669 0.750000
vt 0.437500 0.625000
vt 0.509669 0.625000
vt 0.509669 0.875000
vt 0.437500 0.750000
vt 0.245166 0.750000
vt 0.172997 0.625000
vt 0.245166 0.625000
vt 0.172997 0.750000
vt 0.395459 0.218750
vt 0.323291 0.093750
vt 0.395459 0.093750
vt 0.395459 0.343750
vt 0.323291 0.218750
vt 0.108253 0.750000
vt 0.036084 0.625000
vt 0.108253 0.625000
vt 0.036084 0.750000
vt 0.187500 0.281250
vt 0.115331 0.156250
vt 0.187500 0.156250
vt 0.115331 0.281250
vt 0.395459 0.750000
vt 0.323291 0.625000
vt 0.395459 0.625000
vt 0.395459 0.875000
vt 0.323291 0.750000
vt 0.323291 0.500000
vt 0.395459 0.500000
vt 0.062500 0.437500
vt 0.000000 0.250000
vt 0.062500 0.250000
vt 0.281250 0.485247
vt 0.509669 0.500000
vt 0.115331 0.031250
vt 0.000000 0.485247
vt 0.115331 0.406250
vt 0.036084 0.875000
vt 0.245166 0.875000
vt 0.000000 0.437500
s 0
usemtl m_275a71f7-abce-86b2-acd6-b228fb6300d8
f 3/1/1 24/2/1 4/3/1
f 3/4/2 4/5/2 1/6/2
f 4/7/3 21/8/3 5/9/3
f 4/5/2 5/10/2 1/6/2
f 21/11/4 6/12/4 5/13/4
f 5/10/2 6/14/2 1/6/2
f 18/15/5 7/16/5 6/17/5
f 6/14/2 7/18/2 1/6/2
f 15/19/6 9/20/6 7/21/6
f 7/18/2 9/22/2 1/6/2
f 14/23/7 3/24/7 9/25/7
f 9/22/2 3/4/2 1/6/2
f 12/26/6 11/27/6 10/28/6
f 14/29/6 13/30/6 12/26/6
f 13/31/5 16/32/5 11/33/5
f 13/31/5 18/15/5 17/34/5
f 17/35/4 19/36/4 16/37/4
f 18/38/4 20/39/4 17/35/4
f 20/40/3 22/41/3 19/42/3
f 21/8/3 23/43/3 20/40/3
f 23/44/1 25/45/1 22/46/1
f 24/2/1 26/47/1 23/44/1
f 26/48/7 10/49/7 25/50/7
f 27/51/7 12/52/7 26/48/7
f 25/50/7 8/53/7 2/54/7
f 19/55/8 8/56/8 2/57/8
f 11/33/9 16/32/9 8/58/9
f 10/28/6 11/27/6 8/59/6
f 22/46/1 25/45/1 2/60/1
f 22/41/10 2/61/10 19/42/10
f 3/1/1 27/62/1 24/2/1
f 4/7/3 24/63/3 21/8/3
f 21/11/4 18/38/4 6/12/4
f 18/15/5 15/64/5 7/16/5
f 15/19/6 14/29/6 9/20/6
f 14/23/7 27/51/7 3/24/7
f 12/26/6 13/30/6 11/27/6
f 14/29/6 15/19/6 13/30/6
f 13/31/5 17/34/5 16/32/5
f 13/31/5 15/64/5 18/15/5
f 17/35/4 20/39/4 19/36/4
f 18/38/4 21/11/4 20/39/4
f 20/40/3 23/43/3 22/41/3
f 21/8/3 24/63/3 23/43/3
f 23/44/1 26/47/1 25/45/1
f 24/2/1 27/62/1 26/47/1
f 26/48/7 12/52/7 10/49/7
f 27/51/7 14/23/7 12/52/7
f 25/50/7 10/49/7 8/53/7
f 19/55/8 16/65/8 8/56/8
